<svg width="257" height="256" viewBox="0 0 257 256" fill="none" xmlns="http://www.w3.org/2000/svg">
<g filter="url(#filter0_d_166_149)">
<path d="M217.474 226.208L136.651 195.141L205.113 143.54L217.474 226.208Z" fill="#6636F1"/>
<ellipse rx="109.213" ry="105.505" transform="matrix(0.999954 -0.00962592 0.0337324 0.999431 113.767 106.496)" fill="#6636F1"/>
<path d="M155.719 62.4532C154.715 61.7639 153.558 61.3309 152.349 61.192C151.14 61.0531 149.915 61.2125 148.781 61.6563C142.219 64.2345 128.906 68.5001 114 68.5001C99.0938 68.5001 85.7812 64.2345 79.2187 61.6563C78.0826 61.2144 76.8557 61.0561 75.6446 61.1951C74.4334 61.3342 73.2744 61.7664 72.2679 62.4543C71.2614 63.1422 70.4378 64.0651 69.8684 65.1431C69.299 66.2211 69.0009 67.4216 69 68.6407V94.7501C69 111.531 73.5469 127.328 81.75 139.281C89.9531 151.234 101.719 158.5 114 158.5C126.281 158.5 137.766 151.703 146.25 139.281C154.734 126.859 159 111.531 159 94.7501V68.6407C159.002 67.4195 158.704 66.2165 158.131 65.1375C157.559 64.0586 156.731 63.1368 155.719 62.4532V62.4532ZM85.9687 104.734C85.6393 104.368 85.3853 103.941 85.2211 103.476C85.057 103.012 84.9859 102.52 85.0121 102.028C85.0382 101.536 85.1609 101.054 85.3734 100.61C85.5858 100.165 85.8837 99.7669 86.25 99.4376C86.6192 99.111 87.0491 98.8604 87.5152 98.7001C87.9814 98.5399 88.4745 98.4731 88.9665 98.5035C89.4584 98.534 89.9395 98.6612 90.3823 98.8777C90.8251 99.0943 91.2208 99.3961 91.5469 99.7657C92.2502 100.548 93.1104 101.174 94.0714 101.602C95.0324 102.031 96.0728 102.252 97.125 102.252C98.1772 102.252 99.2176 102.031 100.179 101.602C101.14 101.174 102 100.548 102.703 99.7657C103.029 99.3961 103.425 99.0943 103.868 98.8777C104.31 98.6612 104.792 98.534 105.284 98.5035C105.775 98.4731 106.269 98.5399 106.735 98.7001C107.201 98.8604 107.631 99.111 108 99.4376C108.366 99.7669 108.664 100.165 108.877 100.61C109.089 101.054 109.212 101.536 109.238 102.028C109.264 102.52 109.193 103.012 109.029 103.476C108.865 103.941 108.611 104.368 108.281 104.734C106.883 106.313 105.165 107.576 103.242 108.442C101.319 109.307 99.2339 109.755 97.125 109.755C95.0161 109.755 92.9313 109.307 91.0081 108.442C89.085 107.576 87.3674 106.313 85.9687 104.734V104.734ZM129.562 134.313C129.009 135.137 128.154 135.712 127.181 135.913C126.208 136.115 125.195 135.927 124.359 135.391C121.293 133.343 117.688 132.25 114 132.25C110.312 132.25 106.707 133.343 103.641 135.391C103.228 135.663 102.767 135.85 102.282 135.943C101.797 136.036 101.299 136.032 100.815 135.932C100.332 135.832 99.8729 135.637 99.4648 135.359C99.0568 135.082 98.7077 134.726 98.4375 134.313C97.8963 133.482 97.7012 132.473 97.8939 131.501C98.0866 130.529 98.6518 129.671 99.4688 129.109C103.781 126.265 108.834 124.749 114 124.749C119.166 124.749 124.219 126.265 128.531 129.109C129.348 129.671 129.913 130.529 130.106 131.501C130.299 132.473 130.104 133.482 129.562 134.313V134.313ZM142.031 104.734C140.633 106.313 138.915 107.576 136.992 108.442C135.069 109.307 132.984 109.755 130.875 109.755C128.766 109.755 126.681 109.307 124.758 108.442C122.835 107.576 121.117 106.313 119.719 104.734C119.389 104.368 119.135 103.941 118.971 103.476C118.807 103.012 118.736 102.52 118.762 102.028C118.788 101.536 118.911 101.054 119.123 100.61C119.336 100.165 119.634 99.7669 120 99.4376C120.369 99.111 120.799 98.8604 121.265 98.7001C121.731 98.5399 122.225 98.4731 122.716 98.5035C123.208 98.534 123.69 98.6612 124.132 98.8777C124.575 99.0943 124.971 99.3961 125.297 99.7657C126 100.548 126.86 101.174 127.821 101.602C128.782 102.031 129.823 102.252 130.875 102.252C131.927 102.252 132.968 102.031 133.929 101.602C134.89 101.174 135.75 100.548 136.453 99.7657C136.779 99.3961 137.175 99.0943 137.618 98.8777C138.06 98.6612 138.542 98.534 139.034 98.5035C139.525 98.4731 140.019 98.5399 140.485 98.7001C140.951 98.8604 141.381 99.111 141.75 99.4376C142.116 99.7669 142.414 100.165 142.627 100.61C142.839 101.054 142.962 101.536 142.988 102.028C143.014 102.52 142.943 103.012 142.779 103.476C142.615 103.941 142.361 104.368 142.031 104.734V104.734Z" fill="#F0F0F0"/>
</g>
<defs>
<filter id="filter0_d_166_149" x="0.499878" y="1.0459" width="226.534" height="233.162" filterUnits="userSpaceOnUse" color-interpolation-filters="sRGB">
<feFlood flood-opacity="0" result="BackgroundImageFix"/>
<feColorMatrix in="SourceAlpha" type="matrix" values="0 0 0 0 0 0 0 0 0 0 0 0 0 0 0 0 0 0 127 0" result="hardAlpha"/>
<feOffset dy="4"/>
<feGaussianBlur stdDeviation="2"/>
<feComposite in2="hardAlpha" operator="out"/>
<feColorMatrix type="matrix" values="0 0 0 0 0 0 0 0 0 0 0 0 0 0 0 0 0 0 0.25 0"/>
<feBlend mode="normal" in2="BackgroundImageFix" result="effect1_dropShadow_166_149"/>
<feBlend mode="normal" in="SourceGraphic" in2="effect1_dropShadow_166_149" result="shape"/>
</filter>
</defs>
</svg>
