<svg width="257" height="256" viewBox="0 0 257 256" fill="none" xmlns="http://www.w3.org/2000/svg">
<g filter="url(#filter0_d_82_108)">
<path d="M217.019 226.208L136.197 195.141L204.659 143.54L217.019 226.208Z" fill="#6636F1"/>
<ellipse rx="109.213" ry="105.505" transform="matrix(0.999954 -0.00962592 0.0337324 0.999431 113.312 106.496)" fill="#6636F1"/>
<path d="M158.85 95.0944L149.013 78.7252C147.842 76.805 146.187 75.1981 144.199 74.0527C142.211 72.9073 139.954 72.2602 137.637 72.1709C135.32 72.0816 133.016 72.5531 130.939 73.5419C128.862 74.5306 127.077 76.0049 125.75 77.8289L117.241 63.6769C115.41 60.642 112.399 58.4267 108.869 57.516C105.338 56.6054 101.575 57.0736 98.4039 58.818C96.4295 59.936 94.7606 61.4882 93.5348 63.3467C91.9174 61.9562 89.9789 60.9538 87.8788 60.4219C86.1383 59.9523 84.3164 59.8272 82.5238 60.0542C80.7313 60.2813 79.0057 60.8558 77.452 61.7428C75.8821 62.6035 74.5051 63.7534 73.4 65.1263C72.295 66.4992 71.4838 68.0681 71.013 69.7427C70.5422 71.4173 70.4212 73.1647 70.6569 74.8843C70.8925 76.604 71.4802 78.262 72.3862 79.763L74.0584 82.4991C72.014 82.6665 70.0329 83.2623 68.2549 84.2445C65.1123 86.0086 62.8225 88.8909 61.8832 92.2652C60.9438 95.6394 61.4308 99.2329 63.2382 102.265L83.895 136.607C86.6922 141.409 90.4567 145.631 94.9697 149.026C99.4827 152.421 104.654 154.921 110.184 156.382C115.713 157.843 121.49 158.236 127.179 157.537C132.868 156.838 138.355 155.061 143.322 152.311C148.289 149.56 152.636 145.89 156.111 141.513C159.586 137.137 162.12 132.142 163.565 126.818C165.009 121.494 165.337 115.948 164.527 110.502C163.718 105.056 161.788 99.8188 158.85 95.0944ZM155.554 124.625C154.372 128.938 152.307 132.982 149.478 136.522C146.649 140.061 143.114 143.025 139.078 145.24C130.943 149.74 121.278 150.961 112.205 148.635C103.132 146.309 95.3919 140.626 90.6822 132.833L70.0254 98.4909C69.2428 97.1897 69.0311 95.6436 69.4369 94.1928C69.8428 92.7419 70.8329 91.5051 72.1895 90.7544C73.5461 90.0038 75.158 89.8007 76.6707 90.19C78.1833 90.5792 79.4728 91.5289 80.2555 92.83L91.0757 110.803C91.334 111.234 91.6783 111.611 92.0887 111.914C92.4992 112.217 92.9679 112.439 93.468 112.569C93.968 112.698 94.4898 112.731 95.0034 112.667C95.5169 112.603 96.0123 112.443 96.4612 112.195C96.9101 111.947 97.3037 111.617 97.6195 111.223C97.9354 110.829 98.1673 110.38 98.302 109.9C98.4368 109.421 98.4717 108.92 98.4048 108.428C98.3379 107.935 98.1704 107.46 97.9121 107.029L87.0919 89.0562L79.2226 75.9892C78.4405 74.6898 78.2283 73.1458 78.6324 71.6964C78.8277 70.9747 79.1721 70.298 79.6452 69.7065C80.1183 69.1149 80.7105 68.6206 81.3867 68.2527C82.7414 67.5026 84.3512 67.299 85.8623 67.6866C87.3657 68.0974 88.6495 69.042 89.4526 70.3284L93.3381 76.8855H93.3873L106.175 98.1135C106.507 98.6952 106.999 99.1786 107.597 99.5112C108.195 99.8438 108.877 100.013 109.568 100C110.263 100.014 110.946 99.8333 111.536 99.4815C112.433 98.9789 113.087 98.156 113.354 97.1927C113.622 96.2293 113.481 95.2036 112.962 94.3396L100.175 73.1116C99.3919 71.8104 99.1802 70.2643 99.586 68.8135C99.9918 67.3626 100.982 66.1258 102.339 65.3751C103.695 64.6245 105.307 64.4214 106.82 64.8107C108.332 65.2 109.622 66.1496 110.405 67.4508L125.159 91.9338L128.258 97.1228C123.972 100.544 121.083 105.307 120.103 110.572C119.122 115.837 120.111 121.265 122.897 125.899C123.459 126.681 124.308 127.231 125.274 127.439C126.24 127.647 127.253 127.498 128.11 127.022C128.967 126.545 129.605 125.777 129.896 124.869C130.188 123.961 130.112 122.981 129.684 122.125C127.599 118.659 127.033 114.54 128.112 110.675C129.191 106.809 131.826 103.513 135.439 101.51C135.893 101.261 136.292 100.929 136.613 100.533C136.933 100.136 137.17 99.6826 137.308 99.1985C137.548 98.2409 137.407 97.2318 136.914 96.368L131.996 88.1599C131.426 87.191 131.167 86.0828 131.25 84.9734C131.334 83.8641 131.756 82.8028 132.464 81.9222C133.172 81.0416 134.135 80.3806 135.233 80.0218C136.33 79.6629 137.514 79.6222 138.635 79.9045C139.375 80.0919 140.068 80.4176 140.676 80.8628C141.284 81.3081 141.794 81.8642 142.177 82.4991L152.013 98.8682C154.365 102.718 155.89 106.98 156.498 111.403C157.106 115.827 156.785 120.322 155.554 124.625ZM93.6824 161.42C93.311 161.914 92.8235 162.316 92.2594 162.595C91.6954 162.873 91.0708 163.02 90.4363 163.024C89.632 163.015 88.8472 162.786 88.1739 162.364C81.0204 157.623 75.07 151.4 70.7632 144.155C70.4552 143.726 70.243 143.241 70.1399 142.73C70.0367 142.219 70.0449 141.694 70.1638 141.186C70.2827 140.678 70.5098 140.199 70.8309 139.78C71.1519 139.36 71.56 139.009 72.0294 138.748C72.4988 138.487 73.0194 138.322 73.5586 138.263C74.0977 138.204 74.6436 138.253 75.1621 138.407C75.6806 138.56 76.1605 138.814 76.5715 139.154C76.9825 139.494 77.3158 139.912 77.5504 140.381C81.3088 146.653 86.4851 152.037 92.6987 156.137C93.5538 156.717 94.1364 157.596 94.3205 158.585C94.5045 159.574 94.2753 160.592 93.6824 161.42ZM133.176 60.6578C133.176 59.6569 133.591 58.697 134.329 57.9893C135.066 57.2815 136.067 56.8839 137.111 56.8839C142.292 56.8903 147.381 58.2006 151.869 60.684C156.357 63.1674 160.087 66.737 162.686 71.036C162.947 71.465 163.117 71.9398 163.184 72.4325C163.251 72.9253 163.215 73.4259 163.077 73.905C162.94 74.3841 162.704 74.832 162.383 75.2223C162.063 75.6126 161.664 75.9375 161.21 76.1779C160.623 76.5348 159.938 76.7155 159.243 76.6968C158.555 76.6944 157.879 76.5189 157.284 76.1878C156.688 75.8567 156.194 75.3816 155.849 74.8098C153.95 71.6548 151.219 69.0348 147.93 67.2131C144.64 65.3914 140.909 64.4321 137.111 64.4317C136.067 64.4317 135.066 64.0341 134.329 63.3263C133.591 62.6186 133.176 61.6587 133.176 60.6578Z" fill="white"/>
</g>
<defs>
<filter id="filter0_d_82_108" x="0.045166" y="1.04596" width="226.534" height="233.162" filterUnits="userSpaceOnUse" color-interpolation-filters="sRGB">
<feFlood flood-opacity="0" result="BackgroundImageFix"/>
<feColorMatrix in="SourceAlpha" type="matrix" values="0 0 0 0 0 0 0 0 0 0 0 0 0 0 0 0 0 0 127 0" result="hardAlpha"/>
<feOffset dy="4"/>
<feGaussianBlur stdDeviation="2"/>
<feComposite in2="hardAlpha" operator="out"/>
<feColorMatrix type="matrix" values="0 0 0 0 0 0 0 0 0 0 0 0 0 0 0 0 0 0 0.25 0"/>
<feBlend mode="normal" in2="BackgroundImageFix" result="effect1_dropShadow_82_108"/>
<feBlend mode="normal" in="SourceGraphic" in2="effect1_dropShadow_82_108" result="shape"/>
</filter>
</defs>
</svg>
